<svg width="428" height="338" viewBox="0 0 428 338" fill="none" xmlns="http://www.w3.org/2000/svg">
<path d="M92.1495 304.82H364.547C364.547 304.82 399.661 233.683 352.842 174.64C306.023 115.595 150.672 45.1635 117.686 129.639C84.7001 214.116 35.7538 246.333 92.1495 304.82Z" fill="#F4F6F9"/>
<path d="M110.057 305.941C104.394 286.444 124.614 284.335 123.84 274.869C123.032 264.93 121.41 259.253 138.033 242.629C149.218 231.444 148.199 218.393 146.339 211.044C137.487 207.864 144.189 236.633 133.169 232.895C121.205 228.839 114.714 217.887 112.285 227.621C109.85 237.355 125.46 251.123 116.136 256.408C106.806 261.687 103.564 241.611 97.4815 247.697C91.3937 253.779 106.607 267.365 106.197 278.316C105.793 289.268 82.8788 271.216 79.2318 286.628C76.6672 297.449 90.8982 303.372 99.6035 305.941H110.057Z" fill="#838BC5"/>
<path d="M133.823 305.942C135.89 302.513 139.615 294.185 131.747 288.05C121.609 280.142 147.159 274.465 150.407 264.321C153.65 254.183 139.456 251.55 142.699 246.884C145.941 242.219 161.761 222.552 148.985 212.614C147.978 211.829 147.101 211.316 146.339 211.044C148.199 218.394 149.218 231.444 138.033 242.629C121.411 259.253 123.032 264.93 123.84 274.869C124.616 284.336 104.394 286.444 110.057 305.942H133.823Z" fill="#5361A0"/>
<path d="M103.156 291.62C104.851 292.322 107.154 293.388 107.757 294.597C107.774 294.629 107.805 294.646 107.828 294.675C108.032 299.599 107.494 303.718 107.108 305.942H108.135C108.872 301.594 110.031 290.924 106.086 280.705C106.082 280.684 106.085 280.663 106.077 280.642C105.577 279.216 107.455 275.014 109.112 271.983C112.838 270.643 115.376 269.377 118.431 265.982C121.678 262.373 115.063 255.035 111.093 258.764C107.859 261.802 108.112 268.827 108.317 271.33C107.37 273.039 105.752 276.193 105.194 278.619C104.141 276.335 102.819 274.096 101.144 271.983C99.6147 270.053 98.4343 268.142 97.5197 266.273C97.0365 263.906 96.4554 261.962 95.3369 259.951C94.1746 254.334 95.159 249.593 96.0882 246.784C98.9761 245.32 100.99 243.916 103.227 240.779C105.746 237.249 99.1337 231.402 95.9857 235.113C93.1046 238.51 94.6352 245.918 94.9146 247.148C94.1498 249.699 93.4627 253.434 93.9651 257.822C93.7015 257.463 93.4335 257.103 93.1271 256.728C90.0579 252.965 81.7941 258.381 84.8723 262.874C87.4392 266.621 94.6949 267.399 97.0343 267.553C97.9151 269.215 98.9986 270.906 100.35 272.61C105.405 278.988 107.25 286.548 107.732 293.018C106.618 292.032 104.911 291.248 103.517 290.674C101.495 287.307 99.7611 285.087 95.8584 282.76C91.6888 280.273 85.7723 288.186 90.1998 291.357C93.8592 293.977 100.837 292.288 103.156 291.62Z" fill="#C1E7F6"/>
<path d="M115.747 305.941H155.002C156.308 303.404 157.781 297.949 149.668 293.67C143.478 290.404 154.271 284.385 150.903 278.01C147.534 271.635 140.611 279.814 137.698 274.16C134.784 268.506 128.649 255.755 126.124 263.694C123.597 271.634 135.867 276.566 127.808 282.46C119.748 288.354 109.764 291.362 119.628 293.528C128.882 295.559 113.332 298.987 115.747 305.941Z" fill="#C1E7F6"/>
<path d="M181.091 305.941C184.124 298.06 166.427 294.194 176.832 291.909C187.836 289.493 176.697 286.139 167.706 279.563C158.715 272.988 172.403 267.485 169.585 258.628C166.767 249.77 159.922 263.996 156.672 270.303C153.421 276.611 145.698 267.485 141.939 274.598C138.182 281.711 150.222 288.427 143.317 292.069C134.066 296.949 135.986 303.198 137.461 305.943H181.091V305.941Z" fill="#5361A0"/>
<path d="M157.052 299.103C157.596 299.982 158.298 301.228 158.175 301.978C158.172 301.998 158.181 302.016 158.182 302.036C157.11 303.664 156.001 304.987 155.121 305.942H155.891C157.882 303.709 160.732 299.869 161.984 295.079C161.989 295.068 161.998 295.059 162.001 295.047C162.242 294.231 164.484 292.929 166.237 292.088C168.381 292.702 169.959 292.959 172.472 292.413C175.143 291.833 174.535 286.301 171.494 286.699C169.016 287.023 166.82 290.317 166.09 291.528C165.095 291.997 163.317 292.906 162.265 293.832C162.535 292.441 162.668 290.982 162.597 289.466C162.559 288.626 162.581 287.835 162.646 287.082C164.555 287.597 166.083 287.782 168.406 287.278C171.077 286.698 170.469 281.166 167.427 281.564C165.804 281.777 164.305 283.26 163.257 284.6C163.573 283.769 163.796 282.964 163.901 282.056C165.219 279.106 167.229 277.263 168.578 276.286C170.38 276.567 171.762 276.587 173.816 275.891C176.13 275.107 175.032 270.258 172.372 270.919C169.937 271.522 168.199 275.413 167.922 276.067C166.733 276.981 165.19 278.463 163.976 280.633C163.973 280.383 163.97 280.13 163.953 279.857C163.789 277.128 158.23 276.883 158.157 279.95C158.096 282.508 161.158 285.25 162.176 286.091C162.031 287.139 161.97 288.27 162.026 289.493C162.041 289.813 162.044 290.13 162.042 290.445C161.911 289.546 161.648 288.623 161.176 287.535C160.089 285.026 154.781 286.694 155.76 289.601C156.548 291.939 160.109 293.441 161.48 293.944C161.48 293.944 161.794 295.758 158.683 301.25C158.498 300.434 157.976 299.512 157.529 298.791C157.712 296.587 157.65 295.002 156.633 292.654C155.546 290.144 150.238 291.814 151.218 294.721C152.028 297.121 155.773 298.645 157.052 299.103Z" fill="#838BC5"/>
<path d="M300.748 305.941C295.085 286.444 315.305 284.335 314.53 274.869C313.723 264.93 312.101 259.253 328.724 242.629C339.909 231.444 338.89 218.393 337.03 211.044C328.178 207.864 334.88 236.633 323.86 232.895C311.896 228.839 305.405 217.887 302.976 227.621C300.54 237.355 316.151 251.123 306.826 256.408C297.497 261.687 294.254 241.611 288.172 247.697C282.085 253.779 297.298 267.365 296.888 278.316C296.483 289.268 273.57 271.216 269.923 286.628C267.358 297.449 281.589 303.372 290.294 305.941H300.748Z" fill="#838BC5"/>
<path d="M324.514 305.942C326.581 302.513 330.306 294.185 322.438 288.05C312.3 280.142 337.85 274.465 341.098 264.321C344.341 254.183 330.147 251.55 333.389 246.884C336.632 242.219 352.452 222.552 339.675 212.614C338.668 211.829 337.792 211.316 337.03 211.044C338.89 218.394 339.909 231.444 328.724 242.629C312.102 259.253 313.723 264.93 314.53 274.869C315.306 284.336 295.085 286.444 300.748 305.942H324.514Z" fill="#5361A0"/>
<path d="M293.847 291.62C295.542 292.322 297.845 293.388 298.448 294.597C298.465 294.629 298.496 294.646 298.519 294.675C298.722 299.599 298.185 303.718 297.799 305.942H298.826C299.563 301.594 300.722 290.924 296.777 280.705C296.773 280.684 296.776 280.663 296.768 280.642C296.268 279.216 298.146 275.014 299.803 271.983C303.528 270.643 306.067 269.377 309.122 265.982C312.369 262.373 305.753 255.035 301.784 258.764C298.55 261.802 298.802 268.827 299.007 271.33C298.061 273.039 296.443 276.193 295.885 278.619C294.832 276.335 293.51 274.096 291.835 271.983C290.306 270.053 289.125 268.142 288.211 266.273C287.727 263.906 287.146 261.962 286.028 259.951C284.865 254.334 285.85 249.593 286.779 246.784C289.667 245.32 291.681 243.916 293.918 240.779C296.437 237.249 289.825 231.402 286.677 235.113C283.795 238.51 285.326 245.918 285.605 247.148C284.841 249.699 284.154 253.434 284.656 257.822C284.392 257.463 284.124 257.103 283.818 256.728C280.749 252.965 272.485 258.381 275.563 262.874C278.13 266.621 285.386 267.399 287.725 267.553C288.606 269.215 289.689 270.906 291.041 272.61C296.097 278.988 297.941 286.548 298.423 293.018C297.309 292.032 295.601 291.248 294.208 290.674C292.185 287.307 290.452 285.087 286.549 282.76C282.38 280.273 276.463 288.186 280.891 291.357C284.55 293.977 291.528 292.288 293.847 291.62Z" fill="#C1E7F6"/>
<path d="M306.438 305.941H345.693C346.999 303.404 348.472 297.949 340.359 293.67C334.169 290.404 344.962 284.385 341.594 278.01C338.225 271.635 331.302 279.814 328.389 274.16C325.475 268.506 319.34 255.755 316.815 263.694C314.288 271.634 326.558 276.566 318.498 282.46C310.438 288.354 300.455 291.362 310.319 293.528C319.573 295.559 304.023 298.987 306.438 305.941Z" fill="#C1E7F6"/>
<path d="M371.782 305.941C374.815 298.06 357.118 294.194 367.522 291.909C378.527 289.493 367.388 286.139 358.397 279.563C349.406 272.988 363.094 267.485 360.276 258.628C357.458 249.77 350.613 263.996 347.363 270.303C344.112 276.611 336.388 267.485 332.63 274.598C328.873 281.711 340.913 288.427 334.008 292.069C324.757 296.949 326.677 303.198 328.152 305.943H371.782V305.941Z" fill="#5361A0"/>
<path d="M347.743 299.103C348.287 299.982 348.989 301.228 348.866 301.978C348.863 301.998 348.872 302.016 348.873 302.036C347.801 303.664 346.692 304.987 345.812 305.942H346.582C348.573 303.709 351.423 299.869 352.675 295.079C352.68 295.068 352.689 295.059 352.692 295.047C352.933 294.231 355.175 292.929 356.928 292.088C359.072 292.702 360.65 292.959 363.162 292.413C365.834 291.833 365.226 286.301 362.185 286.699C359.707 287.023 357.511 290.317 356.781 291.528C355.786 291.997 354.008 292.906 352.956 293.832C353.226 292.441 353.359 290.982 353.288 289.466C353.25 288.626 353.272 287.835 353.336 287.082C355.246 287.597 356.774 287.782 359.096 287.278C361.768 286.698 361.16 281.166 358.118 281.564C356.495 281.777 354.996 283.26 353.948 284.6C354.263 283.769 354.486 282.964 354.592 282.056C355.91 279.106 357.919 277.263 359.269 276.286C361.071 276.567 362.453 276.587 364.507 275.891C366.821 275.107 365.723 270.258 363.063 270.919C360.628 271.522 358.89 275.413 358.613 276.067C357.424 276.981 355.881 278.463 354.667 280.633C354.664 280.383 354.661 280.13 354.644 279.857C354.48 277.128 348.921 276.883 348.848 279.95C348.787 282.508 351.849 285.25 352.867 286.091C352.722 287.139 352.661 288.27 352.717 289.493C352.732 289.813 352.735 290.13 352.733 290.445C352.602 289.546 352.339 288.623 351.867 287.535C350.78 285.026 345.471 286.694 346.451 289.601C347.239 291.939 350.8 293.441 352.171 293.944C352.171 293.944 352.485 295.758 349.374 301.25C349.189 300.434 348.667 299.512 348.22 298.791C348.403 296.587 348.341 295.002 347.324 292.654C346.237 290.144 340.929 291.814 341.909 294.721C342.719 297.121 346.464 298.645 347.743 299.103Z" fill="#838BC5"/>
<path d="M72.0201 192.148C77.6056 190.496 80.7943 184.629 79.1424 179.043C77.4905 173.458 71.6234 170.269 66.038 171.921C60.4525 173.573 57.2638 179.44 58.9157 185.026C60.5676 190.612 66.4347 193.8 72.0201 192.148Z" fill="#C8D9FB"/>
<path d="M66.467 179.962L62.5836 180.095L62.8357 187.464L66.7192 187.331L66.467 179.962Z" fill="white"/>
<path d="M75.9678 182.03L75.9306 182.031L75.8878 180.761C75.8653 180.088 75.2999 179.561 74.6263 179.583L71.2034 179.7C71.2034 179.7 72.5302 177.711 72.4874 176.467C72.4492 175.353 72.3489 173.879 70.7056 173.936C70.7056 173.936 70.1211 174.324 70.1785 175.997C70.2314 177.541 67.1228 179.94 67.1228 179.94L67.3841 187.558C67.3841 187.558 68.1027 188.181 69.1986 188.144L74.1521 187.974C74.8538 187.949 75.4023 187.362 75.3787 186.66L75.3528 185.889C75.765 185.874 76.0883 185.528 76.0736 185.116L76.0432 184.219C76.291 184.211 76.4847 184.003 76.4757 183.756L76.4318 182.462C76.4228 182.214 76.2155 182.021 75.9678 182.03Z" fill="white"/>
<path d="M346.742 155.566C340.05 225.505 323.48 305.619 323.48 305.619H132.332C132.332 305.619 82.2041 81.9853 115.793 56.8979C170.516 16.0359 314.188 29.1726 340.007 56.8979C345.278 62.5601 348.048 74.6054 349.046 90.4814C350.183 108.486 349.053 131.42 346.742 155.566Z" fill="#C8D9FB"/>
<path d="M374.435 306.961H79.2644C78.7013 306.961 78.2451 306.505 78.2451 305.941C78.2451 305.378 78.7013 304.922 79.2644 304.922H374.435C374.998 304.922 375.454 305.378 375.454 305.941C375.454 306.505 374.998 306.961 374.435 306.961Z" fill="#C8D9FB"/>
<path d="M220.857 144.598C220.857 144.598 220.605 182.145 199.565 207.642C186.01 224.069 139.226 233.904 127.886 225.956C98.9446 205.673 43.9827 99.1432 43.9827 99.1432L53.9416 97.1889L139.709 177.712L220.857 144.598Z" fill="white"/>
<path d="M79.6531 121.555C84.7474 126.14 89.8046 130.763 94.8628 135.385L102.435 142.334L109.99 149.303L117.532 156.286L125.065 163.277L132.582 170.286C135.088 172.622 137.594 174.957 140.091 177.303L139.502 177.193L148.058 173.763L152.335 172.048L156.618 170.345L165.182 166.939L173.755 163.551C179.468 161.29 185.192 159.053 190.916 156.817C196.644 154.589 202.372 152.365 208.116 150.178C202.46 152.581 196.787 154.945 191.113 157.306C185.437 159.659 179.759 162.011 174.072 164.339L165.543 167.834L157.006 171.31L152.737 173.048L148.464 174.775L139.919 178.228C139.713 178.311 139.485 178.262 139.332 178.12L139.33 178.118C136.821 175.784 134.323 173.44 131.825 171.096L124.327 164.066L116.846 157.019L109.374 149.962L101.915 142.892L94.4731 135.803C89.5207 131.066 84.5683 126.331 79.6531 121.555Z" fill="#838BC5"/>
<g opacity="0.35">
<path d="M206.315 152.477C200.489 157.026 196.12 163.206 192.581 169.628C188.9 176.31 186.23 183.387 183.458 190.471C180.955 196.866 177.251 203.108 170.291 205.208C166.063 206.483 161.765 205.894 157.43 205.962C155.178 205.998 152.929 206.211 150.744 206.771C148.233 207.413 146.016 208.547 143.728 209.726C135.764 213.83 125.214 212.403 118.973 205.898C115.777 202.568 113.556 198.456 111.179 194.54C108.393 189.954 104.888 185.961 101.236 182.048C97.5029 178.048 93.5349 174.236 90.3339 169.78C87.4089 165.71 85.0132 161.293 82.7921 156.808C81.6455 154.492 80.8909 151.951 79.421 149.826C65.5876 129.822 76.2336 120.197 77.4376 119.362C79.1473 118.177 55.0633 96.9692 55.0633 96.9692L43.9838 99.1442C43.9838 99.1442 98.9457 205.673 127.888 225.956C139.227 233.904 186.011 224.069 199.566 207.642C218.062 185.23 220.493 153.507 220.811 146.161C215.555 146.98 210.601 149.132 206.315 152.477Z" fill="#ACC3EA"/>
</g>
<path d="M331.393 305.28H179.542C179.542 305.28 170.654 136.169 252.629 136.169C325.785 136.169 331.393 305.28 331.393 305.28Z" fill="white"/>
<path opacity="0.35" d="M295.417 201.402C293.845 203.573 292.161 205.705 290.211 207.549C288.246 209.41 286.058 211.022 283.79 212.493C279.317 215.395 274.571 217.853 270.053 220.685C265.947 223.259 261.718 226.003 256.972 227.224C252.188 228.456 247.368 227.619 242.907 225.634C238.122 223.505 233.729 220.416 229.954 216.799C226.161 213.163 223.11 208.925 220.324 204.488C217.367 199.775 214.821 194.807 212.63 189.696C208.594 180.275 205.69 170.317 204.139 160.177C202.358 166.596 203.951 190.929 205.267 196.459C210.942 220.331 226.661 240.341 239.395 245.813C241.142 246.564 237.015 304.622 238.816 305.276H267.572C268.817 304.519 267.212 244.473 268.617 244.043C297.279 235.291 300.432 207.534 300.217 194.005C298.717 196.536 297.142 199.02 295.417 201.402Z" fill="#ACC3EA"/>
<path d="M262.784 47.254C258.433 43.5877 243.544 40.1467 240.676 53.7103C240.419 54.9256 239.139 57.5895 235.981 57.1006C225.027 55.4055 221.712 65.3839 221.883 74.0692C222 79.9972 225 85.5051 225.728 91.3892C226.226 95.4103 225.649 99.5001 226.059 103.531C226.57 108.539 228.643 113.376 231.919 117.197C233.279 118.786 234.903 120.238 236.886 120.907C242.148 122.679 247.44 118.479 251.099 114.3C258.006 106.411 263.623 97.3961 267.682 87.7286C268.175 86.556 268.644 85.3756 269.089 84.1839C269.495 83.1015 269.753 81.8051 270.351 80.8116C271.221 79.3654 273.712 79.3473 275.165 78.7853C279.183 77.2287 283.855 74.9388 285.086 70.8231C292.187 47.0592 265.125 49.2274 262.784 47.254Z" fill="#324177"/>
<path d="M275.06 70.1798C275.14 70.1798 275.221 70.1674 275.301 70.1393C275.532 70.0593 280.976 68.1276 283.174 64.2428C283.373 63.8914 283.249 63.4442 282.897 63.246C282.546 63.0466 282.098 63.1705 281.9 63.523C279.976 66.9235 274.871 68.7403 274.819 68.7584C274.437 68.8924 274.235 69.3091 274.368 69.6898C274.474 69.9917 274.757 70.1798 275.06 70.1798Z" fill="#5361A0"/>
<path d="M267.235 70.1201C267.497 70.1201 267.75 69.9793 267.882 69.7315C267.956 69.5919 269.717 66.2342 271.097 59.0965C271.175 58.6989 270.915 58.3159 270.519 58.2393C270.121 58.1593 269.738 58.4218 269.661 58.8183C268.327 65.7104 266.607 69.0118 266.59 69.0456C266.401 69.4026 266.536 69.8453 266.893 70.0345C267.002 70.092 267.119 70.1201 267.235 70.1201Z" fill="#5361A0"/>
<path d="M257.873 69.1154C258.247 69.1154 258.566 68.8304 258.602 68.452C258.62 68.2549 259.032 63.5388 257.405 55.6971C257.323 55.3006 256.937 55.0449 256.54 55.1294C256.143 55.2116 255.89 55.5991 255.972 55.9944C257.55 63.5985 257.149 68.2706 257.145 68.3168C257.109 68.7189 257.404 69.0748 257.807 69.112C257.828 69.1143 257.851 69.1154 257.873 69.1154Z" fill="#5361A0"/>
<path d="M245.847 71.3266C245.904 71.3266 245.963 71.3198 246.02 71.3063C246.412 71.2106 246.654 70.8152 246.558 70.4221C246.481 70.1022 244.618 62.5522 241.303 59.4829C241.007 59.207 240.545 59.225 240.269 59.5223C239.994 59.8186 240.012 60.2815 240.308 60.5563C243.3 63.3272 245.119 70.6936 245.137 70.7679C245.218 71.1024 245.518 71.3266 245.847 71.3266Z" fill="#5361A0"/>
<path d="M235.665 75.7272C235.826 75.7272 235.987 75.6743 236.122 75.5662C236.437 75.3127 236.488 74.8532 236.235 74.5378C236.077 74.3407 232.326 69.708 229.013 68.7461C228.625 68.63 228.22 68.8564 228.107 69.245C227.994 69.6336 228.217 70.0391 228.606 70.1506C231.48 70.9853 235.06 75.4085 235.095 75.4535C235.238 75.6337 235.45 75.7272 235.665 75.7272Z" fill="#5361A0"/>
<path d="M227.512 97.012C228.707 93.7895 232.262 91.6212 235.674 92.0324C235.701 88.0946 235.978 84.1163 237.147 80.3565C240.235 70.4243 271.257 71.2927 272.558 73.9757C272.918 74.718 278.501 93.7793 279.247 100.683C279.995 107.585 278.922 115.149 274.182 120.223C270.461 124.208 264.236 125.751 258.484 125.102C260.308 130.98 262.631 138.927 264.102 143.337C260.537 146.119 239.921 143.472 235.417 143.086C236.452 136.062 237.978 113.139 239.013 106.116C236.488 108.447 232.387 107.649 230.454 106.107C227.766 103.965 226.317 100.233 227.512 97.012Z" fill="#EAC8AC"/>
<path opacity="0.1" d="M250.736 144.434C250.997 143.96 251.252 143.494 251.302 142.938C251.367 142.239 251.069 141.628 250.997 140.947C250.944 140.447 251.144 140.303 251.566 140.109C253.569 139.19 256.123 137.919 256.53 135.484C256.979 132.789 254.046 131.033 252.272 129.593C251.197 128.72 250.466 127.789 249.82 126.57C249.249 125.494 248.5 124.259 248.516 122.996C249.611 123.324 250.672 123.755 251.763 124.099C253.04 124.502 254.381 124.79 255.696 125.036C256.636 125.212 257.592 125.295 258.554 125.328C260.367 131.181 262.649 138.981 264.102 143.337C262.38 144.682 256.677 144.757 250.736 144.434Z" fill="#231F20"/>
<path d="M231.823 101.025C232.002 101.025 232.18 100.96 232.321 100.829C232.617 100.554 232.634 100.091 232.359 99.7952C231.878 99.2771 231.672 98.7781 231.728 98.269C231.844 97.2282 233.003 96.424 233.016 96.415C233.349 96.1875 233.436 95.7336 233.209 95.399C232.984 95.0656 232.528 94.9778 232.196 95.203C232.126 95.2504 230.472 96.3812 230.274 98.0955C230.165 99.0428 230.505 99.9495 231.286 100.791C231.43 100.947 231.626 101.025 231.823 101.025Z" fill="#324177"/>
<path d="M268.435 103.754C270.388 103.754 272.483 102.051 272.749 101.828C273.043 101.582 273.096 101.151 272.872 100.841C270.899 98.0933 265.946 90.3462 266.725 87.5191C267.653 84.1524 272.475 82.4065 272.523 82.3885C272.904 82.2533 273.103 81.8355 272.968 81.4547C272.834 81.0729 272.416 80.8747 272.035 81.0076C271.807 81.0887 266.446 83.0215 265.314 87.1293C264.324 90.7224 269.615 98.7252 271.271 101.11C270.395 101.717 268.915 102.531 267.989 102.225C267.601 102.096 267.19 102.304 267.063 102.687C266.935 103.071 267.142 103.485 267.525 103.612C267.82 103.712 268.126 103.754 268.435 103.754Z" fill="#324177"/>
<path d="M250.781 88.454C251.388 89.0656 253.786 87.6701 255.32 86.145C256.854 84.6199 256.945 83.5453 256.337 82.9326C255.729 82.321 254.653 82.4043 253.119 83.9283C251.584 85.4545 250.173 87.8413 250.781 88.454Z" fill="#324177"/>
<g opacity="0.05">
<path d="M255.525 97.1663C255.65 98.1181 257.025 98.7195 258.595 98.5123C260.165 98.305 261.337 97.3657 261.211 96.415C261.084 95.4644 259.71 94.8618 258.14 95.069C256.571 95.2774 255.4 96.2156 255.525 97.1663Z" fill="#231F20"/>
</g>
<g opacity="0.05">
<path d="M270.388 94.1016C270.513 95.0533 271.888 95.6548 273.458 95.4476C275.028 95.2403 276.2 94.3009 276.073 93.3503C275.947 92.3996 274.573 91.797 273.003 92.0043C271.434 92.2126 270.263 93.1509 270.388 94.1016Z" fill="#231F20"/>
</g>
<path d="M255.006 90.2819C255.006 91.21 255.758 91.9636 256.687 91.9636C257.617 91.9636 258.369 91.2111 258.369 90.2819C258.369 89.3538 257.617 88.6003 256.687 88.6003C255.758 88.6003 255.006 89.3538 255.006 90.2819Z" fill="#324177"/>
<path d="M271.228 90.8553C272.157 90.8553 272.91 90.1024 272.91 89.1736C272.91 88.2449 272.157 87.492 271.228 87.492C270.299 87.492 269.547 88.2449 269.547 89.1736C269.547 90.1024 270.299 90.8553 271.228 90.8553Z" fill="#324177"/>
<path d="M270.192 107.914C268.902 108.375 268.627 109.479 264.715 107.914C260.803 106.35 259.368 105.115 258.716 107.167C258.064 109.218 265.758 115.823 270.192 112.563C274.625 109.302 271.06 107.603 270.192 107.914Z" fill="white"/>
<path opacity="0.05" d="M267.247 116.082C267.962 116.082 268.727 115.932 269.542 115.547C269.907 115.374 270.062 114.938 269.891 114.573C269.718 114.208 269.284 114.05 268.917 114.224C267.137 115.064 265.654 114.372 264.222 113.702L264.051 113.623C263.686 113.453 263.25 113.611 263.079 113.978C262.908 114.344 263.067 114.779 263.434 114.95L263.602 115.029C264.641 115.516 265.852 116.082 267.247 116.082Z" fill="#231F20"/>
<path d="M237.956 149.604L231.558 151.176L239.395 141.881L248.638 143.914L257.538 141.998L265.547 151.01L258.602 149.241L255.633 160.125L265.695 305.278H233.759L242.219 159.543L237.956 149.604Z" fill="#838BC5"/>
<path d="M257.538 141.998L267.668 154.012C267.668 154.012 280.678 146.611 276.863 142.53C273.048 138.451 260.956 133.219 260.956 133.219L262.721 140.053L257.538 141.998Z" fill="url(#paint0_radial_35_682)"/>
<path d="M239.395 141.88L229.265 153.895C229.265 153.895 219.529 145.44 223.344 141.359C227.159 137.278 236.578 131.94 236.578 131.94L235.742 140.511L239.395 141.88Z" fill="url(#paint1_radial_35_682)"/>
<path d="M194.652 120.715C198.512 120.715 203.315 110.594 203.315 110.594L248.573 183.52C248.573 183.52 269.953 154.341 281.979 148.007C296.364 151.545 326.226 204.068 260.51 238.911C214.043 263.546 201.634 157.546 194.652 120.715Z" fill="white"/>
<path d="M203.544 108.039C203.544 108.039 202.909 107.343 201.346 105.779C199.781 104.214 199.111 100.08 197.994 100.36C196.877 100.639 195.816 106.157 197.547 108.593C199.279 111.03 202.895 109.63 203.544 108.039Z" fill="#E5B0A3"/>
<path d="M199.019 64.4784H35.533V120.251H199.019V64.4784Z" fill="#FF811D"/>
<path d="M73.4662 92.5923C73.4662 93.5294 73.4662 94.1737 73.3783 95.6672C73.1733 99.2107 70.8599 101.76 65.618 101.76C60.1419 101.76 57.887 98.8897 57.7394 94.4958L57.7101 93.6172H62.9824L63.0399 94.4958C63.2156 97.1315 64.2709 97.8929 65.7644 97.8929C67.2286 97.8929 67.99 96.9558 68.1364 95.3451C68.195 94.6715 68.195 94.0272 68.195 93.4122V81.1417H73.4662V92.5923Z" fill="white"/>
<path d="M97.2517 91.2451C97.2517 97.7183 93.2105 101.76 86.9133 101.76C80.6172 101.76 76.5748 97.7183 76.5748 91.2451C76.5748 84.7438 80.616 80.7317 86.9133 80.7317C93.2094 80.7317 97.2517 84.7438 97.2517 91.2451ZM91.8623 91.2451C91.8623 86.9401 89.9588 84.5973 86.9133 84.5973C83.8677 84.5973 81.9642 86.9401 81.9642 91.2451C81.9642 95.5219 83.8677 97.894 86.9133 97.894C89.9588 97.8929 91.8623 95.5219 91.8623 91.2451Z" fill="white"/>
<path d="M100.421 101.35V81.1417H105.692V101.35H100.421Z" fill="white"/>
<path d="M122.066 101.35L114.714 87.9956C114.89 90.0456 114.89 91.832 114.89 93.0034V101.35H109.618V81.1417H116.178L123.851 95.0815C123.704 93.0315 123.675 90.9523 123.675 89.7809V81.1417H128.946V101.35H122.066Z" fill="white"/>
<path d="M155.606 92.4751C155.606 93.5001 155.606 94.1151 155.519 95.3158C155.284 98.7129 152.883 101.76 146.645 101.76C140.408 101.76 138.006 98.7129 137.771 95.3158C137.684 94.1151 137.684 93.5001 137.684 92.4751V81.1417H142.955V93.4415C142.955 93.9991 142.955 94.2919 142.985 94.6422C143.131 96.7519 144.332 97.894 146.645 97.894C148.959 97.894 150.159 96.7519 150.306 94.6422C150.335 94.2919 150.335 93.9991 150.335 93.4415V81.1417H155.606V92.4751Z" fill="white"/>
<path d="M174.15 87.3795H168.879C168.644 85.7103 167.766 84.5974 166.038 84.5974C164.837 84.5974 164.017 85.1831 164.017 86.4131C164.017 87.7017 164.955 88.4924 168.293 89.2831C172.744 90.3362 174.56 92.563 174.56 95.6673C174.56 99.7086 170.694 101.76 166.623 101.76C161.498 101.76 158.042 99.7086 157.72 95.1705H162.991C163.343 97.0741 164.895 97.8941 166.476 97.8941C167.94 97.8941 169.053 97.1327 169.053 96.0198C169.053 94.9655 168.292 94.0577 165.803 93.4427C161.205 92.3006 158.51 90.8656 158.51 86.8242C158.51 82.9293 162.142 80.7329 166.154 80.7329C171.486 80.7318 173.712 83.631 174.15 87.3795Z" fill="white"/>
<path d="M43.7687 83.7266C44.0964 82.2331 41.3054 81.0414 39.4954 80.387C41.2424 80.4185 43.3305 79.6424 42.6514 78.3201C41.2164 75.5245 32.786 72.8989 30.878 74.406C28.97 75.9131 31.3927 78.9463 31.3927 78.9463C30.7012 79.2842 29.8564 79.7641 29.5703 80.2101C27.6815 83.1499 30.5897 84.7505 30.5897 84.7505C28.1681 87.2589 30.9816 89.6434 30.9816 89.6434C28.2255 92.5066 31.5279 94.4687 31.5279 94.4687C31.5279 94.4687 38.2351 96.7665 41.1646 95.0206C44.0942 93.2759 35.1963 90.4037 35.1963 90.4037C35.1963 90.4037 42.3022 91.5807 42.8766 89.6298C43.8757 86.2384 36.0433 85.3283 36.0433 85.3283C36.0433 85.3283 43.0951 86.7926 43.7687 83.7266Z" fill="#EAC8AC"/>
<path opacity="0.5" d="M39.9359 81.7195C39.9257 81.8512 39.5754 84.6604 39.5754 84.6604C39.5754 84.6604 42.2561 85.3565 42.6638 83.9857C43.0558 82.6678 39.9359 81.7195 39.9359 81.7195Z" fill="white"/>
<path opacity="0.5" d="M40.3503 77.2501C40.3312 77.3413 39.6486 79.5231 39.6486 79.5231C39.6486 79.5231 41.355 79.5344 41.6929 78.6727C41.997 77.8966 40.3503 77.2501 40.3503 77.2501Z" fill="white"/>
<path opacity="0.5" d="M39.9528 87.3176C39.9257 87.4471 39.4257 89.9003 39.4257 89.9003C39.4257 89.9003 41.6411 90.6358 42.086 89.4081C42.5061 88.2502 39.9528 87.3176 39.9528 87.3176Z" fill="white"/>
<path opacity="0.5" d="M39.1452 92.7567C39.1249 92.8536 38.6271 94.7391 38.6271 94.7391C38.6271 94.7391 40.8707 95.2426 41.0081 94.4958C41.2322 93.2714 39.1452 92.7567 39.1452 92.7567Z" fill="white"/>
<path d="M203.544 108.039C203.544 108.039 187.808 106.904 187.265 109.809C187.01 111.167 192.286 112.016 196.432 112.477C191.343 112.099 186.865 112.342 187.287 113.887C187.613 115.076 192.117 115.743 196.223 116.366C193.369 116.196 187.492 116.021 187.474 117.267C187.443 119.384 193.279 119.822 197.227 120.033C194.868 120.068 188.808 120.13 188.778 121.271C188.753 122.281 189.895 123.207 194.859 123.453C197.757 123.596 197.637 124.147 198.967 123.953C199.993 123.805 201.073 123.764 201.841 123.236C205.541 120.699 205.684 109.261 203.544 108.039Z" fill="#EAC8AC"/>
<path opacity="0.2" d="M189.172 121.459C189.276 120.933 190.944 120.634 191.108 120.733C191.108 120.733 191.098 122.111 190.989 122.344C190.88 122.578 189.067 121.985 189.172 121.459Z" fill="white"/>
<path opacity="0.2" d="M187.812 117.505C187.916 116.979 189.585 116.681 189.749 116.78C189.749 116.78 189.739 118.157 189.63 118.39C189.522 118.625 187.707 118.031 187.812 117.505Z" fill="white"/>
<path opacity="0.2" d="M187.766 113.545C187.871 113.019 189.539 112.72 189.702 112.819C189.702 112.819 189.692 114.197 189.583 114.43C189.476 114.664 187.661 114.071 187.766 113.545Z" fill="white"/>
<path opacity="0.2" d="M187.812 109.654C187.916 109.128 189.585 108.83 189.748 108.93C189.748 108.93 189.738 110.308 189.63 110.541C189.522 110.774 187.707 110.18 187.812 109.654Z" fill="white"/>
<path opacity="0.1" d="M196.6 120.038L201.653 119.325C201.653 119.325 202.677 120.992 201.211 122.602C201.211 122.602 203.84 121.488 203.949 115.668C204.057 109.847 203.409 109.082 203.409 109.082C203.409 109.082 203.364 110.892 202.107 111.882C201.827 112.104 196.51 112.463 196.84 112.477C197.168 112.49 201.909 112.903 201.909 112.903L201.845 115.366L196.892 116.304L201.882 116.339L201.742 118.436L196.6 120.038Z" fill="#231F20"/>
<path d="M135.744 265.923V265.324C136.338 265.324 136.936 265.32 137.539 265.315L137.545 265.914C136.94 265.92 136.339 265.923 135.744 265.923ZM133.941 265.915C133.337 265.91 132.736 265.899 132.139 265.888L132.152 265.289C132.746 265.301 133.344 265.31 133.947 265.316L133.941 265.915ZM139.347 265.887L139.334 265.288C139.929 265.275 140.527 265.261 141.13 265.243L141.148 265.842C140.543 265.86 139.942 265.875 139.347 265.887ZM130.338 265.842C129.734 265.823 129.134 265.801 128.537 265.777L128.562 265.177C129.156 265.202 129.754 265.225 130.356 265.243L130.338 265.842ZM142.949 265.781L142.925 265.182C143.52 265.158 144.118 265.133 144.719 265.104L144.747 265.703C144.145 265.732 143.544 265.757 142.949 265.781ZM126.738 265.69C126.133 265.657 125.533 265.622 124.939 265.583L124.978 264.985C125.571 265.023 126.168 265.059 126.77 265.091L126.738 265.69ZM146.547 265.609L146.513 265.011C147.107 264.977 147.705 264.941 148.306 264.901L148.345 265.499C147.742 265.539 147.143 265.576 146.547 265.609ZM123.14 265.456C122.536 265.409 121.938 265.359 121.344 265.306L121.398 264.709C121.989 264.762 122.585 264.811 123.186 264.859L123.14 265.456ZM150.142 265.376L150.098 264.778C150.692 264.734 151.289 264.687 151.889 264.639L151.938 265.237C151.336 265.286 150.737 265.332 150.142 265.376ZM119.551 265.133C118.948 265.071 118.351 265.006 117.759 264.937L117.827 264.342C118.416 264.41 119.011 264.475 119.611 264.536L119.551 265.133ZM153.733 265.083L153.679 264.486C154.273 264.433 154.868 264.377 155.468 264.318L155.525 264.915C154.925 264.973 154.327 265.03 153.733 265.083ZM157.318 264.732L157.255 264.137C157.847 264.075 158.443 264.009 159.041 263.942L159.109 264.538C158.509 264.605 157.912 264.671 157.318 264.732ZM115.97 264.718C115.37 264.64 114.774 264.558 114.184 264.473L114.269 263.88C114.856 263.964 115.45 264.045 116.047 264.123L115.97 264.718ZM160.898 264.329L160.827 263.733C161.418 263.662 162.013 263.589 162.61 263.513L162.686 264.107C162.086 264.184 161.49 264.258 160.898 264.329ZM112.401 264.204C111.801 264.11 111.209 264.01 110.622 263.908L110.726 263.317C111.31 263.418 111.899 263.516 112.495 263.612L112.401 264.204ZM164.47 263.873L164.39 263.278C164.98 263.198 165.574 263.117 166.17 263.033L166.254 263.626C165.656 263.711 165.062 263.794 164.47 263.873ZM108.848 263.586C108.252 263.472 107.662 263.356 107.079 263.236L107.2 262.649C107.782 262.768 108.367 262.885 108.96 262.998L108.848 263.586ZM168.036 263.367L167.947 262.774C168.536 262.686 169.129 262.596 169.723 262.503L169.816 263.096C169.221 263.189 168.627 263.279 168.036 263.367ZM105.317 262.856C104.725 262.723 104.14 262.587 103.56 262.447L103.701 261.865C104.277 262.003 104.859 262.14 105.448 262.271L105.317 262.856ZM171.595 262.815L171.5 262.223C172.089 262.128 172.679 262.03 173.272 261.93L173.372 262.521C172.777 262.622 172.184 262.719 171.595 262.815ZM175.147 262.216L175.044 261.625C175.631 261.522 176.221 261.418 176.814 261.309L176.921 261.9C176.326 262.008 175.736 262.113 175.147 262.216ZM101.811 262.008C101.224 261.855 100.643 261.697 100.07 261.536L100.232 260.958C100.802 261.118 101.379 261.275 101.963 261.427L101.811 262.008ZM178.69 261.573L178.58 260.984L179.204 260.867L179.315 261.456L178.69 261.573ZM98.3375 261.032C97.7563 260.857 97.1819 260.678 96.6153 260.495L96.8 259.925C97.3632 260.106 97.9331 260.284 98.5109 260.459L98.3375 261.032ZM94.9033 259.923C94.3289 259.724 93.7635 259.521 93.2048 259.314L93.4132 258.751C93.9674 258.956 94.5294 259.158 95.0993 259.356L94.9033 259.923ZM91.5188 258.667C90.9533 258.443 90.3969 258.214 89.8484 257.982L90.0816 257.43C90.6256 257.661 91.1786 257.888 91.7395 258.109L91.5188 258.667ZM88.195 257.258C87.6408 257.007 87.0957 256.751 86.5596 256.492L86.8209 255.952C87.3525 256.21 87.8931 256.463 88.4428 256.712L88.195 257.258ZM84.9444 255.682C84.4038 255.402 83.8722 255.118 83.3518 254.829L83.6424 254.305C84.1583 254.591 84.6843 254.872 85.2204 255.151L84.9444 255.682ZM81.7851 253.931C81.2603 253.62 80.7467 253.304 80.2455 252.985L80.5676 252.479C81.0643 252.794 81.5723 253.107 82.0915 253.415L81.7851 253.931ZM78.7351 251.99C78.2305 251.645 77.7383 251.297 77.2596 250.945L77.6144 250.461C78.0886 250.81 78.5751 251.154 79.073 251.494L78.7351 251.99ZM75.8202 249.849C75.3403 249.47 74.8752 249.086 74.4224 248.7L74.8121 248.245C75.2581 248.627 75.7188 249.005 76.1918 249.379L75.8202 249.849ZM73.072 247.496C72.6237 247.08 72.19 246.66 71.7711 246.237L72.1979 245.814C72.6113 246.231 73.0382 246.645 73.4808 247.055L73.072 247.496ZM70.5253 244.922C70.1165 244.469 69.7178 244.009 69.3416 243.55L69.8045 243.169C70.1751 243.62 70.567 244.075 70.9691 244.52L70.5253 244.922ZM68.2254 242.121C67.8627 241.631 67.5136 241.131 67.1858 240.635L67.6859 240.305C68.008 240.793 68.3516 241.284 68.7075 241.765L68.2254 242.121ZM66.2307 239.092C65.9244 238.565 65.6338 238.028 65.3657 237.496L65.9018 237.227C66.1643 237.747 66.4492 238.274 66.7488 238.791L66.2307 239.092ZM64.6009 235.848C64.3622 235.286 64.1414 234.715 63.9465 234.153L64.5131 233.956C64.7046 234.506 64.9197 235.064 65.1528 235.614L64.6009 235.848ZM63.4115 232.415C63.2539 231.828 63.1164 231.231 63.0049 230.641L63.594 230.529C63.7033 231.105 63.8362 231.686 63.9905 232.258L63.4115 232.415ZM62.7369 228.841C62.6716 228.235 62.6299 227.623 62.6152 227.024L63.2144 227.008C63.2291 227.592 63.2696 228.187 63.3327 228.777L62.7369 228.841ZM63.2448 225.237L62.6468 225.201C62.6828 224.594 62.747 223.983 62.836 223.386L63.4296 223.475C63.3428 224.054 63.2809 224.648 63.2448 225.237ZM63.7686 221.738L63.1863 221.596C63.3293 221.006 63.5016 220.417 63.6976 219.845L64.2653 220.039C64.0749 220.593 63.9082 221.165 63.7686 221.738ZM64.9129 218.391L64.3655 218.146C64.6122 217.594 64.887 217.046 65.1844 216.515L65.7081 216.808C65.4198 217.322 65.1517 217.855 64.9129 218.391ZM66.6418 215.301L66.1462 214.963C66.4841 214.468 66.8513 213.975 67.2376 213.502L67.7028 213.881C67.3266 214.341 66.9696 214.819 66.6418 215.301ZM68.8787 212.555L68.4473 212.138C68.864 211.706 69.3067 211.282 69.7628 210.878L70.1604 211.327C69.7155 211.72 69.2853 212.134 68.8787 212.555ZM71.5334 210.201L71.1707 209.723C71.646 209.362 72.1461 209.009 72.6575 208.676L72.9852 209.178C72.4851 209.504 71.9974 209.848 71.5334 210.201ZM74.5058 208.256L74.2129 207.733C74.6893 207.466 75.1838 207.206 75.6839 206.963L75.8224 206.895L76.0848 207.435L75.9452 207.502C75.4564 207.741 74.972 207.994 74.5058 208.256ZM77.7022 206.642L77.4376 206.103C77.9726 205.841 78.5098 205.575 79.0504 205.307L79.3174 205.844C78.7756 206.112 78.2372 206.378 77.7022 206.642ZM80.928 205.041L80.6588 204.505C81.1927 204.237 81.7288 203.968 82.2649 203.696L82.5364 204.231C81.9991 204.503 81.463 204.773 80.928 205.041ZM84.1425 203.413L83.8688 202.88C84.4004 202.607 84.9332 202.332 85.4671 202.055L85.743 202.588C85.208 202.865 84.6741 203.14 84.1425 203.413ZM87.3401 201.752L87.0608 201.222C87.5902 200.943 88.1184 200.663 88.6489 200.379L88.9316 200.908C88.4 201.192 87.8695 201.474 87.3401 201.752ZM90.5175 200.054L90.2314 199.526C90.7574 199.241 91.2822 198.953 91.8082 198.663L92.0977 199.187C91.5706 199.479 91.0446 199.767 90.5175 200.054ZM93.6711 198.31L93.3772 197.787C93.8987 197.494 94.4201 197.198 94.9405 196.9L95.239 197.42C94.7175 197.72 94.1949 198.016 93.6711 198.31ZM96.8023 196.515L96.4993 195.996C97.0174 195.693 97.5333 195.388 98.0491 195.08L98.3566 195.594C97.8408 195.904 97.3215 196.21 96.8023 196.515ZM99.9019 194.662L99.5888 194.15C100.1 193.838 100.61 193.523 101.118 193.205L101.436 193.713C100.927 194.032 100.416 194.349 99.9019 194.662ZM102.96 192.749L102.635 192.245C103.139 191.921 103.641 191.596 104.141 191.268L104.47 191.769C103.97 192.098 103.466 192.426 102.96 192.749ZM105.971 190.77L105.635 190.273C106.13 189.939 106.624 189.602 107.114 189.262L107.456 189.754C106.964 190.095 106.468 190.434 105.971 190.77ZM108.927 188.718L108.579 188.23C109.065 187.883 109.548 187.533 110.028 187.179L110.383 187.663C109.9 188.018 109.415 188.37 108.927 188.718ZM111.826 186.582L111.464 186.105C111.941 185.742 112.414 185.376 112.884 185.008L113.254 185.48C112.782 185.85 112.307 186.219 111.826 186.582ZM114.663 184.352L114.285 183.887C114.75 183.508 115.211 183.127 115.666 182.743L116.053 183.201C115.595 183.587 115.131 183.971 114.663 184.352ZM117.422 182.024L117.026 181.573C117.477 181.178 117.922 180.779 118.362 180.377L118.767 180.82C118.324 181.224 117.875 181.625 117.422 182.024ZM120.087 179.588L119.672 179.154C120.106 178.741 120.534 178.324 120.956 177.903L121.38 178.327C120.955 178.751 120.524 179.171 120.087 179.588ZM122.643 177.036L122.21 176.622C122.624 176.189 123.031 175.752 123.432 175.312L123.876 175.715C123.471 176.159 123.06 176.599 122.643 177.036ZM125.073 174.362L124.619 173.972C125.01 173.518 125.393 173.06 125.769 172.599L126.234 172.977C125.853 173.443 125.467 173.904 125.073 174.362ZM127.354 171.558L126.877 171.193C127.241 170.719 127.596 170.239 127.943 169.756L128.43 170.105C128.08 170.595 127.721 171.078 127.354 171.558ZM129.461 168.62L128.963 168.287C129.295 167.79 129.619 167.289 129.932 166.784L130.441 167.101C130.123 167.611 129.797 168.118 129.461 168.62ZM131.367 165.546L130.846 165.249C131.143 164.731 131.429 164.208 131.705 163.681L132.236 163.959C131.957 164.493 131.666 165.023 131.367 165.546ZM133.043 162.34L132.501 162.083C132.755 161.547 132.999 161.005 133.232 160.459L133.784 160.693C133.547 161.247 133.301 161.797 133.043 162.34ZM134.457 159.016L133.896 158.804C134.106 158.248 134.304 157.687 134.491 157.121L135.061 157.308C134.871 157.883 134.67 158.452 134.457 159.016ZM135.589 155.574L135.011 155.41C135.172 154.839 135.32 154.264 135.456 153.684L136.04 153.821C135.905 154.406 135.753 154.996 135.589 155.574ZM136.415 152.05L135.826 151.94C135.935 151.359 136.032 150.766 136.115 150.181L136.709 150.264C136.623 150.859 136.525 151.46 136.415 152.05ZM136.921 148.466L136.324 148.41C136.38 147.822 136.424 147.228 136.454 146.632L137.053 146.663C137.023 147.268 136.978 147.869 136.921 148.466ZM137.108 144.853L136.508 144.848L136.509 144.527C136.509 144.043 136.5 143.554 136.484 143.063L137.083 143.042C137.101 143.54 137.109 144.035 137.109 144.526L137.108 144.853ZM136.383 141.279C136.338 140.69 136.28 140.098 136.21 139.501L136.806 139.431C136.877 140.036 136.935 140.636 136.981 141.233L136.383 141.279ZM135.967 137.73C135.875 137.148 135.772 136.561 135.656 135.969L136.245 135.855C136.362 136.453 136.467 137.046 136.56 137.636L135.967 137.73ZM135.281 134.221C135.147 133.647 135 133.069 134.844 132.487L135.423 132.33C135.581 132.919 135.729 133.504 135.864 134.084L135.281 134.221ZM134.349 130.769C134.177 130.205 133.993 129.638 133.8 129.066L134.367 128.872C134.563 129.449 134.749 130.023 134.922 130.593L134.349 130.769ZM133.197 127.38C132.99 126.827 132.773 126.271 132.546 125.712L133.101 125.485C133.331 126.05 133.549 126.611 133.758 127.169L133.197 127.38Z" fill="#FF811D"/>
<path d="M381.258 260.552H381.181L381.188 259.953H381.257C381.822 259.953 382.38 259.9 382.916 259.797L383.03 260.385C382.457 260.496 381.86 260.552 381.258 260.552ZM379.342 260.37C378.746 260.257 378.147 260.092 377.564 259.878L377.77 259.315C378.324 259.517 378.89 259.674 379.454 259.781L379.342 260.37ZM384.808 259.837L384.569 259.288C385.101 259.057 385.602 258.765 386.059 258.421L386.42 258.901C385.925 259.273 385.384 259.588 384.808 259.837ZM375.887 259.115C375.355 258.825 374.835 258.489 374.34 258.12L374.699 257.64C375.172 257.992 375.668 258.312 376.175 258.59L375.887 259.115ZM387.769 257.613L387.307 257.231C387.668 256.794 387.987 256.307 388.253 255.783L388.787 256.056C388.501 256.619 388.159 257.143 387.769 257.613ZM372.945 256.927C372.513 256.507 372.099 256.049 371.712 255.568L372.18 255.193C372.551 255.655 372.949 256.094 373.362 256.496L372.945 256.927ZM389.463 254.332L388.886 254.165C388.99 253.807 389.077 253.429 389.143 253.046C389.178 252.845 389.211 252.644 389.238 252.446L389.831 252.529C389.802 252.734 389.771 252.942 389.733 253.15C389.664 253.554 389.572 253.953 389.463 254.332ZM370.649 254.078C370.33 253.572 370.03 253.035 369.757 252.482L370.294 252.217C370.558 252.751 370.849 253.271 371.156 253.759L370.649 254.078ZM389.993 250.707L389.393 250.687C389.399 250.516 389.402 250.345 389.402 250.178C389.402 249.756 389.384 249.335 389.348 248.927L389.945 248.876C389.982 249.301 390.001 249.741 390.001 250.179C390.001 250.353 389.998 250.529 389.993 250.707ZM389.084 247.196C388.957 246.627 388.792 246.064 388.591 245.52L389.155 245.312C389.364 245.881 389.539 246.471 389.67 247.067L389.084 247.196ZM387.876 243.925C387.606 243.417 387.295 242.915 386.954 242.432L387.444 242.086C387.8 242.589 388.124 243.113 388.406 243.644L387.876 243.925ZM385.857 241.059C385.475 240.633 385.057 240.21 384.614 239.805L385.019 239.362C385.476 239.78 385.908 240.217 386.303 240.658L385.857 241.059ZM383.258 238.67C382.803 238.32 382.316 237.975 381.811 237.642L382.14 237.141C382.657 237.481 383.157 237.835 383.623 238.194L383.258 238.67ZM380.293 236.715C379.791 236.429 379.262 236.148 378.72 235.876L378.988 235.34C379.54 235.616 380.079 235.903 380.59 236.194L380.293 236.715ZM377.104 235.117C376.567 234.879 376.016 234.65 375.454 234.429L375.674 233.871C376.242 234.095 376.801 234.327 377.346 234.569L377.104 235.117ZM373.778 233.805C373.221 233.609 372.654 233.42 372.08 233.237L372.261 232.666C372.842 232.85 373.414 233.041 373.977 233.239L373.778 233.805ZM366.892 231.825C366.313 231.69 365.728 231.56 365.14 231.436L365.264 230.849C365.857 230.974 366.445 231.105 367.028 231.241L366.892 231.825ZM370.17 232.666C369.592 232.531 369.007 232.401 368.419 232.278L368.543 231.691C369.135 231.816 369.723 231.946 370.307 232.083L370.17 232.666ZM363.381 231.082C362.795 230.971 362.206 230.864 361.615 230.761L361.716 230.17C362.311 230.273 362.903 230.381 363.493 230.492L363.381 231.082ZM359.843 230.471C359.251 230.378 358.656 230.291 358.061 230.207L358.145 229.614C358.743 229.698 359.34 229.786 359.936 229.878L359.843 230.471ZM356.277 229.97C355.684 229.895 355.088 229.824 354.494 229.758L354.561 229.162C355.158 229.23 355.755 229.299 356.352 229.375L356.277 229.97ZM352.711 229.57C352.113 229.51 351.516 229.454 350.922 229.402L350.975 228.805C351.572 228.858 352.171 228.913 352.771 228.974L352.711 229.57ZM349.13 229.254C348.528 229.208 347.93 229.165 347.337 229.126L347.376 228.528C347.973 228.567 348.572 228.61 349.176 228.656L349.13 229.254ZM322.187 229.058L322.144 228.46C322.144 228.46 322.787 228.414 323.949 228.356L323.979 228.955C322.827 229.012 322.188 229.058 322.187 229.058ZM345.542 229.017C344.939 228.983 344.34 228.953 343.747 228.925L343.774 228.326C344.369 228.353 344.97 228.384 345.575 228.419L345.542 229.017ZM325.773 228.874L325.75 228.274C326.297 228.253 326.899 228.232 327.551 228.211L327.569 228.811C326.919 228.83 326.318 228.851 325.773 228.874ZM341.949 228.85C341.342 228.827 340.742 228.808 340.152 228.791L340.169 228.192C340.761 228.209 341.363 228.228 341.972 228.251L341.949 228.85ZM329.365 228.762L329.352 228.163C329.925 228.151 330.526 228.139 331.153 228.13L331.161 228.729C330.537 228.738 329.937 228.75 329.365 228.762ZM338.353 228.75C337.743 228.738 337.142 228.729 336.554 228.723L336.561 228.124C337.151 228.13 337.753 228.139 338.366 228.151L338.353 228.75ZM332.958 228.713L332.955 228.113C333.361 228.111 333.776 228.11 334.198 228.11L334.752 228.111L334.755 228.71L334.198 228.709C333.777 228.709 333.364 228.71 332.958 228.713Z" fill="#FF811D"/>
<path d="M368.605 237.582L370.732 249.598C370.773 249.824 370.62 250.042 370.393 250.082L351.756 253.383C351.53 253.424 351.311 253.271 351.272 253.044L349.144 241.028C349.104 240.802 349.257 240.583 349.483 240.544L368.12 237.243C368.347 237.202 368.565 237.355 368.605 237.582Z" fill="#C8D9FB"/>
<path opacity="0.3" d="M349.131 240.954L358.942 244.911C359.241 245.031 359.567 245.065 359.885 245.009C360.203 244.952 360.497 244.808 360.736 244.593L368.592 237.507L360.176 244.348C359.955 244.528 359.656 244.58 359.387 244.487L349.131 240.954Z" fill="url(#paint2_radial_35_682)"/>
<path opacity="0.3" d="M370.653 249.139L360.841 245.182C360.543 245.062 360.216 245.028 359.898 245.084C359.581 245.141 359.287 245.285 359.047 245.5L351.191 252.586L359.608 245.745C359.829 245.565 360.127 245.512 360.396 245.606L370.653 249.139Z" fill="url(#paint3_radial_35_682)"/>
<path d="M360.135 246.392C360.03 246.757 359.79 246.977 359.428 247.024C358.851 247.109 358.525 246.702 358.467 245.893L358.411 245.049C358.351 244.232 358.618 243.737 359.196 243.659C359.541 243.606 359.795 243.747 359.957 244.048L359.922 243.564L360.708 243.424L360.882 245.836C360.89 245.977 360.95 246.035 361.082 246.011C361.541 245.93 361.558 244.879 361.41 244.044C361.229 243.02 360.613 242.401 359.474 242.604C358.015 242.862 357.46 244.161 357.79 246.029C358.023 247.348 358.776 248.06 360.078 247.829C360.683 247.722 361.18 247.516 361.675 246.972L361.749 247.771C361.271 248.227 360.757 248.419 360.151 248.526C358.307 248.853 357.314 247.82 357.013 246.125C356.655 244.101 357.36 242.26 359.383 241.902C361.112 241.596 361.851 242.58 362.087 243.907C362.444 245.923 361.583 246.693 360.953 246.804C360.534 246.879 360.235 246.77 360.135 246.392ZM359.253 245.712C359.279 246.096 359.446 246.226 359.701 246.19C359.949 246.155 360.094 245.977 360.069 245.593L360.012 244.8C359.989 244.475 359.799 244.365 359.579 244.404C359.323 244.441 359.175 244.61 359.204 245.003L359.253 245.712Z" fill="#ACC3EA"/>
<path d="M348.503 133.796L297.66 135.28C295.787 135.28 294.271 133.76 294.271 131.891V85.7192C294.271 83.8461 295.786 82.33 297.66 82.33H379.205C379.573 82.33 379.921 82.3863 380.254 82.499C381.175 97.1 345.636 99.6365 348.503 133.796Z" fill="#ACC3EA"/>
<path d="M384.017 74.9547H302.472C300.6 74.9547 299.083 76.4719 299.083 78.3439V124.514C299.083 126.386 300.6 127.904 302.472 127.904H384.017C385.889 127.904 387.406 126.386 387.406 124.514V78.3439C387.406 76.4719 385.889 74.9547 384.017 74.9547Z" fill="white"/>
<path d="M378.555 106.498H307.934C306.902 106.498 306.064 107.335 306.064 108.368C306.064 109.401 306.901 110.238 307.934 110.238H378.555C379.586 110.238 380.424 109.401 380.424 108.368C380.424 107.335 379.588 106.498 378.555 106.498Z" fill="#ACC3EA"/>
<path d="M378.291 98.563H361.737C360.704 98.563 359.867 99.3999 359.867 100.433V100.471C359.867 101.504 360.704 102.341 361.737 102.341H378.291C379.323 102.341 380.161 101.504 380.161 100.471V100.433C380.161 99.3999 379.323 98.563 378.291 98.563Z" fill="#ACC3EA"/>
<path d="M346.144 114.379H307.935C306.902 114.379 306.065 115.216 306.065 116.249V116.287C306.065 117.32 306.902 118.157 307.935 118.157H346.144C347.176 118.157 348.014 117.32 348.014 116.287V116.249C348.012 115.216 347.176 114.379 346.144 114.379Z" fill="#ACC3EA"/>
<path d="M362.163 114.379H351.996C350.963 114.379 350.127 115.216 350.127 116.249V116.287C350.127 117.32 350.963 118.157 351.996 118.157H362.163C363.195 118.157 364.033 117.32 364.033 116.287V116.249C364.032 115.216 363.195 114.379 362.163 114.379Z" fill="#ACC3EA"/>
<path d="M307.934 102.34H354.679C355.712 102.34 356.549 101.503 356.549 100.47V100.432C356.549 99.3988 355.712 98.562 354.679 98.562H307.934C306.902 98.562 306.064 99.3988 306.064 100.432V100.471C306.065 101.504 306.902 102.34 307.934 102.34Z" fill="#ACC3EA"/>
<path d="M312.076 88.5126C312.076 88.8134 312.076 89.0206 312.048 89.5004C311.982 90.6392 311.238 91.458 309.554 91.458C307.795 91.458 307.071 90.5356 307.024 89.1242L307.015 88.8415H308.709L308.728 89.1242C308.784 89.9712 309.123 90.2157 309.603 90.2157C310.074 90.2157 310.318 89.9149 310.365 89.3968C310.384 89.1805 310.384 88.9733 310.384 88.7762V84.8339H312.078V88.5126H312.076Z" fill="#ACC3EA"/>
<path d="M319.718 88.0801C319.718 90.1594 318.42 91.4581 316.397 91.4581C314.374 91.4581 313.075 90.1594 313.075 88.0801C313.075 85.9907 314.374 84.7022 316.397 84.7022C318.42 84.7022 319.718 85.9907 319.718 88.0801ZM317.987 88.0801C317.987 86.697 317.375 85.9446 316.397 85.9446C315.418 85.9446 314.806 86.697 314.806 88.0801C314.806 89.4543 315.418 90.2157 316.397 90.2157C317.375 90.2157 317.987 89.4532 317.987 88.0801Z" fill="#ACC3EA"/>
<path d="M326.147 89.3686C326.147 90.5829 325.159 91.1843 324.284 91.288C323.954 91.3263 323.738 91.3263 323.325 91.3263H320.738V84.8339H323.4C323.748 84.8339 323.899 84.8339 324.228 84.8711C325.301 85.0029 325.903 85.6798 325.903 86.5268C325.903 87.1193 325.592 87.571 324.952 87.7974C325.77 88.0328 326.147 88.5779 326.147 89.3686ZM322.43 87.393H323.193C323.344 87.393 323.485 87.384 323.606 87.3649C323.917 87.3175 324.133 87.1576 324.133 86.7724C324.133 86.4052 323.936 86.2272 323.616 86.1799C323.494 86.1608 323.344 86.1518 323.193 86.1518H322.43V87.393ZM324.378 89.3123C324.378 88.8798 324.067 88.6534 323.719 88.6252C323.596 88.6162 323.446 88.6162 323.295 88.6162H322.429V90.0084H323.342C323.493 90.0084 323.642 90.0084 323.765 89.9994C324.067 89.9803 324.378 89.7358 324.378 89.3123Z" fill="#ACC3EA"/>
<path d="M330.431 89.6412L329.884 91.3263H328.087L330.43 84.8339H332.5L334.842 91.3263H332.999L332.452 89.6412H330.431ZM330.844 88.3245H332.048L331.445 86.3297L330.844 88.3245Z" fill="#ACC3EA"/>
<path d="M336.557 91.3263L334.214 84.8339H336.059L337.611 90.0186L339.173 84.8339H340.971L338.628 91.3263H336.557Z" fill="#ACC3EA"/>
<path d="M342.581 89.6412L342.035 91.3263H340.239L342.581 84.8339H344.651L346.994 91.3263H345.15L344.604 89.6412H342.581ZM342.995 88.3245H344.199L343.596 86.3297L342.995 88.3245Z" fill="#ACC3EA"/>
<path d="M347.607 91.3263V84.8339H349.301V91.3263H347.607Z" fill="#ACC3EA"/>
<path d="M355.54 91.3263H350.561V84.8339H352.255V89.8958H355.538V91.3263H355.54Z" fill="#ACC3EA"/>
<path d="M358.101 89.6412L357.555 91.3263H355.757L358.1 84.8339H360.17L362.513 91.3263H360.669L360.123 89.6412H358.101ZM358.514 88.3245H359.718L359.116 86.3297L358.514 88.3245Z" fill="#ACC3EA"/>
<path d="M368.537 89.3686C368.537 90.5829 367.55 91.1843 366.674 91.288C366.344 91.3263 366.128 91.3263 365.715 91.3263H363.128V84.8339H365.79C366.138 84.8339 366.289 84.8339 366.618 84.8711C367.691 85.0029 368.293 85.6798 368.293 86.5268C368.293 87.1193 367.982 87.571 367.342 87.7974C368.161 88.0328 368.537 88.5779 368.537 89.3686ZM364.82 87.393H365.583C365.734 87.393 365.875 87.384 365.996 87.3649C366.307 87.3175 366.523 87.1576 366.523 86.7724C366.523 86.4052 366.326 86.2272 366.006 86.1799C365.885 86.1608 365.734 86.1518 365.583 86.1518H364.82V87.393ZM366.768 89.3123C366.768 88.8798 366.457 88.6534 366.109 88.6252C365.986 88.6162 365.836 88.6162 365.685 88.6162H364.819V90.0084H365.732C365.883 90.0084 366.032 90.0084 366.155 89.9994C366.458 89.9803 366.768 89.7358 366.768 89.3123Z" fill="#ACC3EA"/>
<path d="M374.514 91.3263H369.536V84.8339H371.23V89.8958H374.514V91.3263Z" fill="#ACC3EA"/>
<path d="M380.424 91.3263H375.447V84.8339H380.331V86.1518H377.141V87.4122H380.143V88.73H377.141V90.0095H380.424V91.3263Z" fill="#ACC3EA"/>
<path d="M344.919 53.9474C346.472 45.3537 340.765 37.1276 332.172 35.5741C323.578 34.0206 315.353 39.7278 313.799 48.3216C312.246 56.9154 317.953 65.1414 326.546 66.6949C335.14 68.2484 343.365 62.5412 344.919 53.9474Z" fill="#C8D9FB"/>
<path d="M333.06 58.9725L338.885 58.9893L338.917 47.9352L333.092 47.9184L333.06 58.9725Z" fill="white"/>
<path d="M318.968 51.4633H319.024L319.03 49.5586C319.032 48.5482 319.855 47.7316 320.865 47.7339L326 47.7485C326 47.7485 323.917 44.8301 323.923 42.9626C323.927 41.2922 324.008 39.079 326.473 39.0857C326.473 39.0857 327.367 39.6399 327.359 42.1505C327.352 44.4663 332.122 47.9152 332.122 47.9152L332.089 59.3421C332.089 59.3421 331.04 60.3097 329.397 60.3052L321.966 60.2838C320.914 60.2804 320.064 59.4255 320.067 58.3735L320.071 57.2167C319.451 57.2144 318.952 56.7121 318.953 56.0926L318.957 54.7477C318.585 54.7466 318.286 54.4447 318.287 54.0742L318.292 52.1323C318.295 51.7617 318.596 51.4621 318.968 51.4633Z" fill="white"/>
<defs>
<radialGradient id="paint0_radial_35_682" cx="0" cy="0" r="1" gradientUnits="userSpaceOnUse" gradientTransform="translate(250.479 128.216) rotate(180) scale(36.5681 36.5695)">
<stop stop-color="white"/>
<stop offset="1" stop-color="#C1E7F6"/>
</radialGradient>
<radialGradient id="paint1_radial_35_682" cx="0" cy="0" r="1" gradientUnits="userSpaceOnUse" gradientTransform="translate(250.479 128.216) rotate(180) scale(36.5682 36.5696)">
<stop stop-color="white"/>
<stop offset="1" stop-color="#C1E7F6"/>
</radialGradient>
<radialGradient id="paint2_radial_35_682" cx="0" cy="0" r="1" gradientUnits="userSpaceOnUse" gradientTransform="translate(358.837 239.258) rotate(21.6862) scale(6.997 6.9972)">
<stop stop-color="#BFB0F9"/>
<stop offset="1" stop-color="#EFDBFF"/>
</radialGradient>
<radialGradient id="paint3_radial_35_682" cx="0" cy="0" r="1" gradientUnits="userSpaceOnUse" gradientTransform="translate(360.916 250.842) rotate(21.6862) scale(6.99701 6.9972)">
<stop stop-color="#BFB0F9"/>
<stop offset="1" stop-color="#EFDBFF"/>
</radialGradient>
</defs>
</svg>
