<svg width="379" height="334" viewBox="0 0 379 334" fill="none" xmlns="http://www.w3.org/2000/svg">
<g clip-path="url(#clip0_35_812)">
<path opacity="0.18" d="M210.879 33.2042C190.096 45.4285 166.588 52.0302 143.438 58.8109C120.289 65.5916 96.8701 72.7304 76.6475 85.861C56.425 98.9916 39.4768 119.037 35.5364 142.82C34.0867 151.592 34.4169 160.673 31.8982 169.204C27.0007 185.826 12.2634 197.698 5.03182 213.43C-5.02629 235.193 0.945888 261.779 14.7149 281.41C32.7658 307.112 62.5763 322.76 93.2935 329.368C124.011 335.975 155.859 334.403 187.147 331.538C222.112 328.293 257.464 323.314 289.715 309.384C321.966 295.453 351.172 271.558 364.89 239.238C373.907 217.978 380.098 194.151 376.297 171.392C346.722 -5.77364 224.054 25.4612 210.879 33.2042Z" fill="#FF811D"/>
<path d="M141.424 82.4482C140.889 82.4218 140.355 82.5151 139.861 82.7213C139.368 82.9275 138.926 83.2413 138.569 83.6399C138.13 84.2447 137.853 84.9514 137.763 85.6931C137.399 87.907 137.628 90.1778 138.426 92.2747C139.224 94.3716 140.564 96.22 142.308 97.6321C143.467 98.544 144.916 99.2713 146.371 99.0196C146.538 99.0053 146.696 98.9364 146.819 98.8237C146.944 98.6527 147.002 98.4416 146.982 98.2307C147.099 94.3145 147.194 90.3087 145.689 86.7169C144.636 84.2161 144.558 82.4874 141.424 82.4482Z" fill="url(#paint0_linear_35_812)"/>
<path d="M232.086 82.4482C232.622 82.4218 233.156 82.515 233.651 82.7212C234.146 82.9273 234.588 83.2412 234.947 83.6399C235.38 84.2469 235.656 84.9527 235.747 85.6931C236.112 87.9066 235.885 90.1772 235.087 92.2742C234.29 94.3712 232.951 96.2198 231.208 97.6321C230.049 98.544 228.594 99.2713 227.139 99.0196C226.972 99.0041 226.815 98.9354 226.691 98.8238C226.568 98.6516 226.51 98.4414 226.528 98.2307C226.411 94.3145 226.321 90.3087 227.827 86.717C228.874 84.2161 228.952 82.4874 232.086 82.4482Z" fill="url(#paint1_linear_35_812)"/>
<path d="M356.411 275.911H24.3644C14.2437 275.911 6.03931 284.112 6.03931 294.228V315.526C6.03931 325.643 14.2437 333.843 24.3644 333.843H356.411C366.531 333.843 374.736 325.643 374.736 315.526V294.228C374.736 284.112 366.531 275.911 356.411 275.911Z" fill="#FF811D"/>
<path d="M356.411 275.911H24.3644C14.2437 275.911 6.03931 284.112 6.03931 294.228V315.526C6.03931 325.643 14.2437 333.843 24.3644 333.843H356.411C366.531 333.843 374.736 325.643 374.736 315.526V294.228C374.736 284.112 366.531 275.911 356.411 275.911Z" fill="url(#paint2_linear_35_812)"/>
<path d="M147.771 120.156C147.771 120.156 104.673 117.633 85.8325 140.627C66.9924 163.621 76.8154 272.006 76.8154 272.006L275.918 276.537L284.022 153.914C284.823 128.05 253.77 120.039 221.021 120.145H219.308C161.663 120.732 147.771 120.156 147.771 120.156Z" fill="#FF811D"/>
<path d="M147.771 120.156C147.771 120.156 104.673 117.633 85.8325 140.627C66.9924 163.621 76.8154 272.006 76.8154 272.006L275.918 276.537L284.022 153.914C284.823 128.05 253.77 120.039 221.021 120.145H219.308C161.663 120.732 147.771 120.156 147.771 120.156Z" fill="url(#paint3_linear_35_812)"/>
<path d="M113.18 125.281C113.18 125.281 77.7167 125.281 43.8314 213.547L87.299 233.263L109.217 205.972L113.18 125.281ZM258.203 125.281C258.203 125.281 293.666 125.281 327.552 213.547L284.084 233.263L262.166 205.972L258.203 125.281Z" fill="#FF811D"/>
<path opacity="0.24" d="M64.832 215.472C63.8767 215.033 63.0197 214.406 62.312 213.628C61.6042 212.851 61.0602 211.939 60.7124 210.947C60.3645 209.956 60.22 208.904 60.2873 207.855C60.3547 206.806 60.6325 205.782 61.1043 204.842C70.015 187.102 97.3012 145.539 115.822 143.089C139.022 140.006 165.469 136.778 165.469 136.778C165.469 136.778 245.833 135.312 259.182 144.61C269.632 151.883 293.325 182.922 306.232 200.148C309.215 204.137 308.102 211.455 303.579 213.575L271.675 239.428C270.629 239.916 269.703 240.626 268.961 241.509L247.551 267.088C246.773 268.019 245.789 268.756 244.677 269.241C243.564 269.727 242.355 269.947 241.143 269.885L128.712 264.341C127.164 264.268 125.672 263.737 124.426 262.815C123.18 261.894 122.235 260.624 121.71 259.166L108.389 222.208C107.883 220.786 106.977 219.541 105.78 218.621C104.583 217.702 103.146 217.148 101.641 217.026C100.137 216.903 98.6287 217.218 97.2987 217.932C95.9687 218.646 94.8734 219.729 94.1443 221.05C93.1816 222.784 91.5964 224.089 89.7089 224.7C87.8213 225.312 85.7719 225.185 83.9743 224.345L64.832 215.472Z" fill="white"/>
<path d="M359.864 264.873H27.8179C17.6972 264.873 9.4928 273.073 9.4928 283.189V304.488C9.4928 314.604 17.6972 322.805 27.8179 322.805H359.864C369.985 322.805 378.189 314.604 378.189 304.488V283.189C378.189 273.073 369.985 264.873 359.864 264.873Z" fill="#FF811D"/>
<path opacity="0.18" d="M37.2044 285.791C38.5981 286.664 40.2436 286.703 41.8164 286.731L70.8545 287.145C68.8978 288.208 67.0736 289.498 65.4197 290.988C58.9829 296.773 62.8506 307.437 71.5038 307.733C137.242 309.971 203.037 309.193 268.793 308.416C279.058 308.293 289.362 308.17 299.577 307.123C301.048 306.978 302.455 306.446 303.654 305.583C304.854 304.719 305.804 303.554 306.409 302.206C307.014 300.858 307.252 299.374 307.099 297.904C306.946 296.434 306.408 295.031 305.538 293.836C305.331 293.306 305.249 292.736 305.298 292.17C305.346 291.603 305.525 291.055 305.819 290.568C306.113 290.082 306.516 289.669 306.995 289.363C307.474 289.056 308.017 288.864 308.583 288.801C319.318 287.553 330.412 287.951 341.046 286.132C343.145 285.774 345.597 285.114 346.448 282.775C347.007 281.326 346.688 279.642 346.229 278.16C344.075 271.262 338.472 266.534 332.544 264.419C326.617 262.305 320.315 262.417 314.13 262.54L71.0672 267.424C62.6715 267.592 49.1543 264.626 41.2791 268.213C36.348 270.467 30.1967 281.41 37.2044 285.791Z" fill="#1D2741"/>
<path d="M88.9725 294.905L80.269 270.781C80.269 270.781 76.7092 266.674 86.2019 264.85C95.6947 263.026 279.371 264.85 279.371 264.85L283.648 294.882L88.9725 294.905Z" fill="url(#paint4_linear_35_812)"/>
<path d="M283.648 294.905V297.389C283.648 299.374 282.859 301.278 281.454 302.682C280.05 304.086 278.145 304.874 276.159 304.874H96.4895C94.5033 304.874 92.5985 304.086 91.194 302.682C89.7895 301.278 89.0005 299.374 89.0005 297.389V294.905C88.9976 293.92 89.1892 292.945 89.5645 292.036C89.9397 291.126 90.4911 290.299 91.1871 289.603C91.883 288.907 92.7097 288.355 93.6197 287.979C94.5297 287.603 95.505 287.411 96.4895 287.413H276.159C277.143 287.411 278.118 287.603 279.028 287.979C279.938 288.355 280.765 288.907 281.461 289.603C282.157 290.299 282.708 291.126 283.084 292.036C283.459 292.945 283.65 293.92 283.648 294.905Z" fill="white"/>
<path d="M283.334 292.74C282.867 294.278 281.917 295.626 280.625 296.584C279.333 297.542 277.767 298.06 276.159 298.06H96.4895C94.8808 298.06 93.3148 297.542 92.0227 296.584C90.7306 295.626 89.781 294.278 89.314 292.74C89.78 291.2 90.7292 289.851 92.0214 288.891C93.3135 287.932 94.8801 287.414 96.4895 287.413H276.159C277.768 287.414 279.335 287.932 280.627 288.891C281.919 289.851 282.868 291.2 283.334 292.74Z" fill="#FF811D"/>
<path d="M88.9725 294.905L80.269 270.781C80.269 270.781 76.7092 266.674 86.2019 264.85C95.6947 263.026 279.371 264.85 279.371 264.85L283.648 294.882L88.9725 294.905Z" fill="url(#paint5_linear_35_812)"/>
<path d="M283.334 292.739C282.867 294.278 281.917 295.626 280.625 296.584C279.333 297.542 277.767 298.06 276.158 298.06H96.4895C94.8808 298.06 93.3148 297.542 92.0227 296.584C90.7306 295.626 89.781 294.278 89.314 292.739C89.78 291.2 90.7292 289.851 92.0214 288.891C93.3135 287.932 94.8801 287.414 96.4895 287.413L279.399 284.381C282.758 284.381 282.399 289.657 283.334 292.739Z" fill="url(#paint6_linear_35_812)"/>
<path d="M279.371 172.997V276.537C279.371 279.422 278.225 282.188 276.184 284.228C274.144 286.268 271.376 287.413 268.49 287.413H104.13C102.7 287.415 101.285 287.135 99.964 286.589C98.6432 286.042 97.4431 285.241 96.4324 284.231C95.4218 283.221 94.6203 282.021 94.074 280.701C93.5277 279.381 93.2473 277.966 93.2488 276.537V172.997C93.2488 170.113 94.3952 167.347 96.4357 165.307C98.4763 163.267 101.244 162.121 104.13 162.121H268.49C269.92 162.12 271.335 162.4 272.656 162.946C273.977 163.492 275.177 164.293 276.188 165.304C277.198 166.314 278 167.513 278.546 168.834C279.092 170.154 279.373 171.569 279.371 172.997Z" fill="#FF811D"/>
<path d="M279.371 172.997V276.537C279.371 279.422 278.225 282.188 276.184 284.228C274.144 286.268 271.376 287.413 268.49 287.413H104.13C102.7 287.415 101.285 287.135 99.964 286.589C98.6432 286.042 97.4431 285.241 96.4324 284.231C95.4218 283.221 94.6203 282.021 94.074 280.701C93.5277 279.381 93.2473 277.966 93.2488 276.537V172.997C93.2488 170.113 94.3952 167.347 96.4357 165.307C98.4763 163.267 101.244 162.121 104.13 162.121H268.49C269.92 162.12 271.335 162.4 272.656 162.946C273.977 163.492 275.177 164.293 276.188 165.304C277.198 166.314 278 167.513 278.546 168.834C279.092 170.154 279.373 171.569 279.371 172.997Z" fill="url(#paint7_linear_35_812)"/>
<path d="M279.371 172.998V276.543C279.373 278.306 278.944 280.042 278.123 281.602C277.302 283.162 276.113 284.498 274.658 285.495C274.631 285.518 274.601 285.539 274.569 285.556C272.942 286.661 271.043 287.298 269.078 287.397H104.124C102.527 287.397 100.95 287.043 99.5064 286.362C98.8222 284.917 98.4684 283.339 98.471 281.741V178.217C98.471 175.333 99.6173 172.566 101.658 170.527C103.698 168.487 106.466 167.341 109.352 167.341H273.713C275.311 167.338 276.89 167.69 278.336 168.371C279.021 169.817 279.374 171.398 279.371 172.998Z" fill="#FF811D"/>
<path d="M52.272 217.374C52.272 217.374 33.3592 249.331 35.7939 261.499C38.2287 273.667 93.2488 269.287 93.2488 269.287V240.077H81.5787L87.299 233.263L52.272 217.374Z" fill="url(#paint8_linear_35_812)"/>
<path d="M319.111 217.374C319.111 217.374 335.343 253.225 335.819 260.526C336.294 267.827 332.583 270.82 317.645 272.733C302.706 274.646 279.371 272.733 279.371 272.733V236.653L287.493 236.167L284.084 233.246L319.111 217.374Z" fill="url(#paint9_linear_35_812)"/>
<path d="M165.447 130.825C165.447 130.825 164.92 143.184 175.365 150.966C185.809 158.748 197.753 151.218 200.658 146.104C203.563 140.991 207.879 128.559 207.879 128.559L165.447 130.825Z" fill="url(#paint10_linear_35_812)"/>
<path d="M143.192 80.0034C143.192 80.0034 146.909 127.457 175.37 135.989C203.832 144.521 227.709 114.533 230.127 80.0034C232.545 45.4733 209.978 14.1601 179.641 20.5547C149.304 26.9494 139.056 59.1522 143.192 80.0034Z" fill="url(#paint11_linear_35_812)"/>
<path d="M242.928 56.1925C243.594 58.6654 242.928 61.2836 242.122 63.7117C239.261 72.3735 234.731 80.392 228.79 87.3155C228.946 86.3644 229.081 85.4021 229.187 84.4455C230.065 76.8405 229.535 69.1391 227.626 61.7256C223.338 59.8626 218.804 65.0824 214.192 64.2712C210.084 63.5719 208.198 58.6765 204.565 56.6121C200.933 54.5477 196.169 55.8904 192.582 58.0723C188.994 60.2542 185.792 63.2362 181.852 64.7411C172.829 68.1707 163.034 62.9844 154.784 57.9716L153.189 63.6054H152.707L151.728 63.6446C149.976 63.7168 148.289 64.3255 146.896 65.3883C145.502 66.4511 144.469 67.9166 143.937 69.5861C142.129 75.1807 143.175 79.9586 144.077 86.7728C144.144 87.2764 144.508 89.5702 144.676 90.0625C139.078 80.8985 133.33 68.2434 135.72 57.8038C136.181 56.146 136.554 54.4653 136.84 52.7686C137.125 50.3909 136.728 47.9908 136.588 45.6019C136.246 39.8282 137.629 33.6349 141.776 29.5956C151.622 20.0288 159.687 6.96529 172.701 2.5791C179.237 0.417121 186.143 -0.400031 193.003 0.176867C199.864 0.753764 206.537 2.71277 212.62 5.93588C218.776 9.23672 224.144 13.7684 229.478 18.2441C233.542 21.6848 237.644 25.1758 240.471 29.6516C243.298 34.1273 244.719 39.7835 242.917 44.7571C242.189 46.7712 240.941 48.7181 241.087 50.8496C241.215 52.7127 242.43 54.3575 242.928 56.1925Z" fill="#3F3D56"/>
<path opacity="0.24" d="M234.857 73.4744C233.228 77.2396 231.527 81.1055 229.187 84.4455C230.065 76.8406 229.535 69.1391 227.625 61.7257C223.338 59.8626 218.804 65.0824 214.192 64.2712C210.084 63.5719 208.198 58.6766 204.565 56.6122C200.933 54.5477 196.169 55.8904 192.582 58.0724C188.994 60.2543 185.792 63.2362 181.852 64.7412C172.896 68.1483 163.163 63.0628 154.952 58.0724C154.543 54.4414 162.57 51.107 175.93 56.2988C186.889 60.562 196.64 40.7234 210.744 46.1334C212.351 46.7544 213.207 48.6286 214.814 49.2608C217.052 50.1336 219.51 49.4398 221.872 49.1041C224.234 48.7685 227.066 49.0426 228.325 51.0735C229.288 52.6288 228.946 54.6372 229.383 56.4163C229.82 58.1954 232.047 59.8459 233.351 58.5647C233.815 61.3664 233.968 64.2109 233.805 67.0462C234.62 66.0001 235.689 65.1798 236.911 64.6628C237.309 67.6951 236.072 70.6715 234.857 73.4744ZM146.232 63.8796C142.907 70.8393 142.694 82.6384 144.687 90.0793C143.203 86.454 140.243 79.4495 139.369 75.606C138.619 72.3443 138.188 68.6127 140.164 65.9048C140.696 65.3142 141.153 64.6603 141.524 63.9579C141.71 63.3766 141.828 62.7759 141.877 62.1676C142.185 60.1927 143.612 58.0724 145.61 58.1731C146.419 58.2741 147.189 58.5782 147.849 59.057C149.052 59.8235 152.506 61.8152 152.724 63.6222L146.232 63.8796Z" fill="white"/>
<path d="M279.17 276.543C279.17 276.543 278.61 282.373 274.457 285.494C274.429 285.518 274.399 285.539 274.367 285.556C272.767 286.714 270.852 287.356 268.877 287.397H103.923C102.324 287.396 100.745 287.042 99.2993 286.362C98.6194 284.916 98.2678 283.338 98.2694 281.74V227.377L279.17 276.543Z" fill="url(#paint12_linear_35_812)"/>
<path opacity="0.24" d="M115.206 285.886H99.5344L98.4989 270.92V178.217C98.4989 175.333 99.6453 172.566 101.686 170.527C103.726 168.487 106.494 167.341 109.38 167.341H149.304C149.304 167.341 107.37 167.487 105.439 176.791C103.508 186.095 105.439 279.508 105.439 279.508C105.439 279.508 103.497 284.432 115.206 285.886Z" fill="white"/>
</g>
<defs>
<linearGradient id="paint0_linear_35_812" x1="145" y1="90.5157" x2="138.004" y2="91.6748" gradientUnits="userSpaceOnUse">
<stop stop-color="#ECC4D7"/>
<stop offset="0.16" stop-color="#EDCBD5"/>
<stop offset="0.42" stop-color="#EFD4D1"/>
<stop offset="0.7" stop-color="#F2EAC9"/>
</linearGradient>
<linearGradient id="paint1_linear_35_812" x1="228.51" y1="90.5157" x2="235.512" y2="91.6748" gradientUnits="userSpaceOnUse">
<stop stop-color="#ECC4D7"/>
<stop offset="0.16" stop-color="#EDCBD5"/>
<stop offset="0.42" stop-color="#EFD4D1"/>
<stop offset="0.7" stop-color="#F2EAC9"/>
</linearGradient>
<linearGradient id="paint2_linear_35_812" x1="190.332" y1="299.022" x2="191.45" y2="416.017" gradientUnits="userSpaceOnUse">
<stop offset="0.01" stop-opacity="0"/>
<stop offset="0.26" stop-color="#0D0D12" stop-opacity="0.21"/>
<stop offset="0.77" stop-color="#2F2E40" stop-opacity="0.75"/>
<stop offset="0.99" stop-color="#3F3D56"/>
</linearGradient>
<linearGradient id="paint3_linear_35_812" x1="179.277" y1="174.984" x2="187.889" y2="-13.1869" gradientUnits="userSpaceOnUse">
<stop offset="0.01" stop-opacity="0"/>
<stop offset="0.26" stop-color="#0D0D12" stop-opacity="0.21"/>
<stop offset="0.77" stop-color="#2F2E40" stop-opacity="0.75"/>
<stop offset="0.99" stop-color="#3F3D56"/>
</linearGradient>
<linearGradient id="paint4_linear_35_812" x1="79.6141" y1="279.48" x2="283.648" y2="279.48" gradientUnits="userSpaceOnUse">
<stop offset="0.01" stop-opacity="0"/>
<stop offset="0.26" stop-color="#0D0D12" stop-opacity="0.21"/>
<stop offset="0.77" stop-color="#2F2E40" stop-opacity="0.75"/>
<stop offset="0.99" stop-color="#3F3D56"/>
</linearGradient>
<linearGradient id="paint5_linear_35_812" x1="181.572" y1="295.777" x2="181.891" y2="221.29" gradientUnits="userSpaceOnUse">
<stop offset="0.01" stop-opacity="0"/>
<stop offset="0.26" stop-color="#0D0D12" stop-opacity="0.21"/>
<stop offset="0.77" stop-color="#2F2E40" stop-opacity="0.75"/>
<stop offset="0.99" stop-color="#3F3D56"/>
</linearGradient>
<linearGradient id="paint6_linear_35_812" x1="247.182" y1="270.73" x2="10.2172" y2="356.475" gradientUnits="userSpaceOnUse">
<stop offset="0.01" stop-opacity="0"/>
<stop offset="0.26" stop-color="#0D0D12" stop-opacity="0.21"/>
<stop offset="0.77" stop-color="#2F2E40" stop-opacity="0.75"/>
<stop offset="0.99" stop-color="#3F3D56"/>
</linearGradient>
<linearGradient id="paint7_linear_35_812" x1="183.01" y1="134.512" x2="189.296" y2="306.631" gradientUnits="userSpaceOnUse">
<stop offset="0.01" stop-opacity="0"/>
<stop offset="0.26" stop-color="#0D0D12" stop-opacity="0.21"/>
<stop offset="0.77" stop-color="#2F2E40" stop-opacity="0.75"/>
<stop offset="0.99" stop-color="#3F3D56"/>
</linearGradient>
<linearGradient id="paint8_linear_35_812" x1="59.6043" y1="344.221" x2="73.2323" y2="116.385" gradientUnits="userSpaceOnUse">
<stop stop-color="#ECC4D7"/>
<stop offset="0.16" stop-color="#EDCBD5"/>
<stop offset="0.42" stop-color="#EFD4D1"/>
<stop offset="0.7" stop-color="#F2EAC9"/>
</linearGradient>
<linearGradient id="paint9_linear_35_812" x1="298.642" y1="399.289" x2="313.819" y2="145.561" gradientUnits="userSpaceOnUse">
<stop stop-color="#ECC4D7"/>
<stop offset="0.16" stop-color="#EDCBD5"/>
<stop offset="0.42" stop-color="#EFD4D1"/>
<stop offset="0.7" stop-color="#F2EAC9"/>
</linearGradient>
<linearGradient id="paint10_linear_35_812" x1="183.749" y1="178.352" x2="190.879" y2="59.107" gradientUnits="userSpaceOnUse">
<stop stop-color="#ECC4D7"/>
<stop offset="0.16" stop-color="#EDCBD5"/>
<stop offset="0.42" stop-color="#EFD4D1"/>
<stop offset="0.7" stop-color="#F2EAC9"/>
</linearGradient>
<linearGradient id="paint11_linear_35_812" x1="187.018" y1="3.03792" x2="185.072" y2="194.85" gradientUnits="userSpaceOnUse">
<stop stop-color="#ECC4D7"/>
<stop offset="0.16" stop-color="#EDCBD5"/>
<stop offset="0.42" stop-color="#EFD4D1"/>
<stop offset="0.7" stop-color="#F2EAC9"/>
</linearGradient>
<linearGradient id="paint12_linear_35_812" x1="197.003" y1="191.79" x2="142.362" y2="589.167" gradientUnits="userSpaceOnUse">
<stop offset="0.01" stop-opacity="0"/>
<stop offset="0.26" stop-color="#0D0D12" stop-opacity="0.21"/>
<stop offset="0.77" stop-color="#2F2E40" stop-opacity="0.75"/>
<stop offset="0.99" stop-color="#3F3D56"/>
</linearGradient>
<clipPath id="clip0_35_812">
<rect width="378.189" height="334" fill="white"/>
</clipPath>
</defs>
</svg>
